# xmcd
#
# Track frame offsets:
#	150
#	1657
#	15471
#	36250
#	64250
#	75171
#	91798
#	132448
#	156943
#	171661
#	185256
#	207499
#	226701
#	237942
#	257088
#	275612
#	313556
#	325958
#	337010
#
# Disc length: 4812 seconds
#
# Revision: 1
# Processed by: cddbd v1.5.1PL0 Copyright (c) Steve Scherf et al.
# Submitted via: audiograbber 1.83.01
#
DISCID=fb12ca13
DTITLE=Various Artist - Crossroads Blues
DYEAR=1900
DGENRE=Blues
TTITLE0= Intro
TTITLE1=Sonny Boy Williamson - Once Upon A Time
TTITLE2=ZZ Top - Blue Jean Blues
TTITLE3=Jimmie Vaughan - Dengue Woman Blues
TTITLE4=Screamin' Jay Hawkins - I Put A Spell On You
TTITLE5=Etta James - Hound Dog
TTITLE6=Stevie Ray Vaughan - Tim Pan Alley
TTITLE7=Eric Clapton - Double Trouble
TTITLE8=Buddy Guy - My Time After Awhile
TTITLE9=Gary Moore - I Loved Another Woman
TTITLE10=John Campbell - Wild Streak
TTITLE11=Phil Upchurch And James Van Buren - Sweet Woman Blues
TTITLE12=John Lee Hooker - Boom Boom
TTITLE13=Ry Cooder - Feelin' Bad Blues
TTITLE14=Robert Cray - Move A Mountain
TTITLE15=Buddy Guy - Five Long Years
TTITLE16=JJ Cale - Lou-Easy-Ann
TTITLE17=John Lee Hooker - Worried Life Blues
TTITLE18=Sugar Ray Norcia and Charlie Musselwhite - Life Will Be Better
EXTD=
EXTT0=
EXTT1=
EXTT2=
EXTT3=
EXTT4=
EXTT5=
EXTT6=
EXTT7=
EXTT8=
EXTT9=
EXTT10=
EXTT11=
EXTT12=
EXTT13=
EXTT14=
EXTT15=
EXTT16=
EXTT17=
EXTT18=
PLAYORDER=
